Coordinates
version=1
nRows=30
nColumns=38
inDegrees=no

Units are S.I. units (second, meters, Newtons, ...)
If the header above contains a line with 'inDegrees', this indicates whether rotational values are in degrees (yes) or radians (no).

endheader
time	pelvis_tilt	pelvis_list	pelvis_rotation	pelvis_tx	pelvis_ty	pelvis_tz	hip_flexion_r	hip_adduction_r	hip_rotation_r	knee_angle_r	ankle_angle_r	subtalar_angle_r	mtp_angle_r	hip_flexion_l	hip_adduction_l	hip_rotation_l	knee_angle_l	ankle_angle_l	subtalar_angle_l	mtp_angle_l	lumbar_extension	lumbar_bending	lumbar_rotation	arm_flex_r	arm_add_r	arm_rot_r	elbow_flex_r	pro_sup_r	wrist_flex_r	wrist_dev_r	arm_flex_l	arm_add_l	arm_rot_l	elbow_flex_l	pro_sup_l	wrist_flex_l	wrist_dev_l
21.95	2.86981	1.41308	-1.20954	0.655363	-0.160374	0.951694	-0.266981	0.0486499	0.0729806	0.0819364	-0.29935	0	0	-0.219149	-0.084156	-0.00645075	0.222171	-0.185425	0	0	-0.115449	-0.0036662	-0.0284855	0.787176	-0.509297	-0.0428275	2.618	1.29296	0	0	0.00721396	-0.303388	0.583402	0.638609	1.5708	0	0
21.96	2.86817	1.41319	-1.20844	0.655354	-0.160346	0.951651	-0.26665	0.048754	0.073397	0.0821828	-0.299229	0	0	-0.219107	-0.0841701	-0.00645432	0.222045	-0.185252	0	0	-0.115184	-0.00447612	-0.0299737	0.789624	-0.506761	-0.0365985	2.618	1.29822	0	0	0.00183335	-0.302992	0.566021	0.645147	1.5708	0	0
21.97	2.86574	1.41371	-1.20662	0.655379	-0.160311	0.951597	-0.265846	0.0488392	0.0741872	0.0825111	-0.298984	0	0	-0.218554	-0.0842087	-0.00690243	0.22207	-0.185197	0	0	-0.113899	-0.00530983	-0.0305967	0.791796	-0.505002	-0.0294762	2.618	1.30542	0	0	-0.00174135	-0.303072	0.55363	0.651539	1.5708	0	0
21.98	2.86342	1.41437	-1.20499	0.655436	-0.160274	0.951533	-0.26492	0.0487454	0.0752049	0.0826748	-0.298799	0	0	-0.217788	-0.0842232	-0.00771321	0.222236	-0.185179	0	0	-0.112274	-0.00610272	-0.0302471	0.793072	-0.503741	-0.0233734	2.618	1.31171	0	0	-0.00419342	-0.302991	0.542393	0.658234	1.5708	0	0
21.99	2.86321	1.41461	-1.20511	0.655439	-0.160297	0.951509	-0.264577	0.0486197	0.0757159	0.0826655	-0.298776	0	0	-0.217605	-0.084046	-0.00770293	0.222137	-0.185144	0	0	-0.110844	-0.00673326	-0.0278669	0.792089	-0.503781	-0.0208707	2.618	1.31151	0	0	-0.00254372	-0.30337	0.539914	0.662159	1.5708	0	0
22	2.86217	1.4154	-1.20438	0.655413	-0.160326	0.951458	-0.263563	0.0482949	0.0766335	0.0827894	-0.298696	0	0	-0.216804	-0.0837971	-0.00750108	0.222084	-0.18509	0	0	-0.110084	-0.00713285	-0.0278818	0.792206	-0.501546	-0.0172946	2.618	1.30856	0	0	-0.00327954	-0.303893	0.532	0.668442	1.5708	0	0
22.01	2.86158	1.41588	-1.2037	0.655361	-0.160372	0.951417	-0.262998	0.0482647	0.0771382	0.0827212	-0.298638	0	0	-0.216157	-0.0837239	-0.00726766	0.222265	-0.185113	0	0	-0.109561	-0.00725631	-0.027827	0.792142	-0.499366	-0.014767	2.618	1.30474	0	0	-0.00302262	-0.304233	0.526429	0.674274	1.5708	0	0
22.02	2.86175	1.41616	-1.20367	0.655325	-0.160427	0.951384	-0.262691	0.0481909	0.0775887	0.0826015	-0.298585	0	0	-0.215653	-0.0836645	-0.00718209	0.222542	-0.185102	0	0	-0.109528	-0.00764032	-0.0280536	0.791684	-0.496821	-0.013653	2.618	1.29902	0	0	-0.00315378	-0.30451	0.519693	0.681427	1.5708	0	0
22.03	2.86255	1.4162	-1.2041	0.655274	-0.160501	0.951373	-0.262666	0.0480939	0.0779148	0.0825027	-0.298521	0	0	-0.215458	-0.0836279	-0.00710088	0.222622	-0.185064	0	0	-0.109955	-0.00809544	-0.028554	0.791036	-0.494171	-0.0140267	2.618	1.29186	0	0	-0.00341616	-0.305144	0.512569	0.689329	1.5708	0	0
22.04	2.86405	1.41601	-1.20491	0.655177	-0.160609	0.951378	-0.262895	0.0479599	0.0777159	0.0824895	-0.298445	0	0	-0.215519	-0.0835702	-0.00662335	0.222553	-0.185064	0	0	-0.110724	-0.00851617	-0.0292502	0.79037	-0.491651	-0.0159544	2.618	1.28368	0	0	-0.00318309	-0.305731	0.505432	0.69734	1.5708	0	0
22.05	2.86671	1.41551	-1.2065	0.655018	-0.160785	0.951396	-0.26344	0.0477594	0.076933	0.0826281	-0.298359	0	0	-0.215709	-0.0834502	-0.00567014	0.222755	-0.185082	0	0	-0.112027	-0.00887356	-0.0299945	0.789691	-0.489381	-0.0194295	2.618	1.27451	0	0	-0.00215749	-0.306034	0.498841	0.705218	1.5708	0	0
22.06	2.86957	1.41489	-1.20831	0.654869	-0.160958	0.951411	-0.264168	0.0476242	0.0760498	0.0826588	-0.298273	0	0	-0.215921	-0.0834107	-0.00505085	0.223253	-0.185081	0	0	-0.113445	-0.00925857	-0.0304638	0.788661	-0.48743	-0.0241381	2.618	1.26448	0	0	-0.000653549	-0.306267	0.493017	0.712753	1.5708	0	0
22.07	2.8726	1.41439	-1.21036	0.654755	-0.161097	0.95142	-0.264895	0.047478	0.0753063	0.0824978	-0.298158	0	0	-0.216056	-0.0833559	-0.00486415	0.223769	-0.185053	0	0	-0.114633	-0.00982513	-0.0306308	0.787119	-0.485716	-0.0296367	2.618	1.2534	0	0	0.00127897	-0.306489	0.48796	0.719828	1.5708	0	0
22.08	2.87492	1.4143	-1.21177	0.654654	-0.161212	0.951428	-0.265219	0.0473131	0.0749641	0.0822404	-0.298029	0	0	-0.215832	-0.0832149	-0.00472746	0.224068	-0.185039	0	0	-0.115625	-0.0103805	-0.0313049	0.786036	-0.483624	-0.0345067	2.618	1.24074	0	0	0.00305603	-0.306503	0.482382	0.726585	1.5708	0	0
22.09	2.87756	1.41434	-1.21334	0.654532	-0.161336	0.951434	-0.265494	0.0470281	0.0747837	0.0818091	-0.297948	0	0	-0.215444	-0.0829823	-0.00447615	0.224366	-0.185076	0	0	-0.116317	-0.0110932	-0.0322342	0.785352	-0.481497	-0.0384453	2.618	1.22671	0	0	0.00459493	-0.306472	0.47665	0.733226	1.5708	0	0
22.1	2.88081	1.41453	-1.21534	0.654349	-0.161464	0.951431	-0.265696	0.0464984	0.0743842	0.081231	-0.297982	0	0	-0.214798	-0.0827073	-0.00527658	0.224731	-0.185298	0	0	-0.116784	-0.0120926	-0.0334047	0.785202	-0.479696	-0.0412594	2.618	1.21208	0	0	0.00602583	-0.306487	0.47115	0.739744	1.5708	0	0
22.11	2.88458	1.41487	-1.21775	0.654124	-0.161608	0.95143	-0.265731	0.0459526	0.0736566	0.0808178	-0.298019	0	0	-0.21384	-0.0824792	-0.00750483	0.225201	-0.185872	0	0	-0.117011	-0.0132754	-0.034712	0.78587	-0.478337	-0.0425546	2.618	1.19748	0	0	0.0073548	-0.306473	0.46606	0.74611	1.5708	0	0
22.12	2.88587	1.41514	-1.21811	0.65399	-0.161709	0.951417	-0.265659	0.0458595	0.0734738	0.0805443	-0.298066	0	0	-0.213251	-0.0824125	-0.00797971	0.225365	-0.18644	0	0	-0.116917	-0.0143052	-0.0357094	0.787303	-0.47741	-0.042486	2.618	1.18386	0	0	0.00859424	-0.306196	0.460386	0.752161	1.5708	0	0
22.13	2.88541	1.4153	-1.21712	0.65391	-0.161783	0.951394	-0.265559	0.045981	0.0736969	0.0802381	-0.298133	0	0	-0.212959	-0.0824955	-0.00734855	0.225389	-0.186726	0	0	-0.11663	-0.015397	-0.0364585	0.789459	-0.477053	-0.0411974	2.618	1.17226	0	0	0.00970119	-0.305604	0.453711	0.75795	1.5708	0	0
22.14	2.88568	1.41558	-1.21714	0.653847	-0.161854	0.95138	-0.265296	0.045818	0.0741272	0.0800905	-0.298195	0	0	-0.212694	-0.0823478	-0.00700849	0.225253	-0.186856	0	0	-0.116249	-0.0167739	-0.037792	0.79313	-0.476932	-0.0373062	2.618	1.1594	0	0	0.00899181	-0.304713	0.443646	0.765019	1.5708	0	0
22.15	2.88601	1.41558	-1.21737	0.653769	-0.161919	0.951364	-0.265298	0.0455989	0.0745473	0.0800416	-0.29811	0	0	-0.212673	-0.0823408	-0.00771661	0.225225	-0.186908	0	0	-0.118193	-0.0175639	-0.0439797	0.802712	-0.474047	-0.0264392	2.618	1.14411	0	0	0.00162439	-0.303136	0.421012	0.777882	1.5708	0	0
22.16	2.88641	1.41553	-1.21769	0.653713	-0.161996	0.951357	-0.265323	0.0454951	0.0749395	0.0801003	-0.298005	0	0	-0.212655	-0.0823735	-0.00841532	0.225215	-0.186939	0	0	-0.119468	-0.0182149	-0.0486034	0.810458	-0.471118	-0.0160726	2.618	1.14518	0	0	-0.00327928	-0.302227	0.405168	0.788073	1.5708	0	0
22.17	2.88729	1.41529	-1.21844	0.65365	-0.162092	0.951349	-0.265524	0.0454307	0.0750657	0.0801682	-0.297847	0	0	-0.212698	-0.082387	-0.00907448	0.225482	-0.186924	0	0	-0.12036	-0.0187533	-0.051196	0.81607	-0.469059	-0.00734232	2.618	1.1471	0	0	-0.0042902	-0.300891	0.395812	0.794266	1.5708	0	0
22.18	2.88819	1.41478	-1.21909	0.653539	-0.162235	0.951356	-0.265939	0.0454171	0.0748796	0.0802137	-0.297723	0	0	-0.212899	-0.0824125	-0.00924876	0.225975	-0.186795	0	0	-0.121274	-0.0187119	-0.0529309	0.821161	-0.467112	0.00127781	2.618	1.14531	0	0	-0.00392088	-0.299644	0.390072	0.79939	1.5708	0	0
22.19	2.88962	1.41438	-1.22027	0.653448	-0.162382	0.951371	-0.266237	0.0452947	0.0747269	0.0802988	-0.297597	0	0	-0.213078	-0.0823029	-0.00905338	0.226205	-0.186969	0	0	-0.122067	-0.0187191	-0.0543437	0.825367	-0.464665	0.0090525	2.618	1.14125	0	0	-0.00341066	-0.298489	0.385074	0.804137	1.5708	0	0
22.2	2.89146	1.41398	-1.22195	0.65338	-0.162512	0.951382	-0.266581	0.0451263	0.0745517	0.0803372	-0.297585	0	0	-0.213354	-0.0821702	-0.00904835	0.226174	-0.187139	0	0	-0.122753	-0.0188074	-0.0550229	0.828794	-0.462594	0.0151644	2.618	1.13725	0	0	-0.00217884	-0.297357	0.381565	0.80788	1.5708	0	0
22.21	2.8936	1.41321	-1.22404	0.653317	-0.162651	0.951389	-0.267334	0.0449731	0.0745084	0.0802387	-0.297696	0	0	-0.213791	-0.0822044	-0.00966135	0.226901	-0.186846	0	0	-0.123809	-0.0188523	-0.0551805	0.831834	-0.461049	0.0193616	2.618	1.13513	0	0	-0.000636109	-0.296618	0.379932	0.811218	1.5708	0	0
22.22	2.89544	1.41245	-1.22585	0.653266	-0.162782	0.951408	-0.268118	0.0448779	0.0745581	0.0800737	-0.297874	0	0	-0.214404	-0.0822277	-0.009976	0.227212	-0.186645	0	0	-0.12465	-0.018849	-0.0547964	0.834007	-0.460076	0.0217244	2.618	1.13632	0	0	0.00135754	-0.295926	0.379704	0.813756	1.5708	0	0
22.23	2.8971	1.41191	-1.22752	0.653216	-0.162902	0.951426	-0.268673	0.0447493	0.0746276	0.0798927	-0.297993	0	0	-0.214956	-0.0820916	-0.0098222	0.227127	-0.186634	0	0	-0.125152	-0.0190172	-0.05397	0.835169	-0.459881	0.0219915	2.618	1.13968	0	0	0.00366507	-0.295107	0.38015	0.815763	1.5708	0	0
22.24	2.89867	1.41134	-1.22908	0.653171	-0.163029	0.951448	-0.269238	0.0446995	0.0747415	0.0797072	-0.298118	0	0	-0.215484	-0.081966	-0.00972227	0.227162	-0.186641	0	0	-0.125674	-0.0192892	-0.0529805	0.835925	-0.460199	0.0209784	2.618	1.14497	0	0	0.00600395	-0.294144	0.380524	0.817384	1.5708	0	0
